<svg width="32" height="32" viewBox="0 0 32 32" fill="none" xmlns="http://www.w3.org/2000/svg">
<rect x="10.125" y="3.125" width="20.75" height="21.75" rx="0.875" fill="#FFB347" stroke="black" stroke-width="0.25"/>
<rect x="6.125" y="5.125" width="19.75" height="21.75" rx="0.875" fill="#77DD77" stroke="black" stroke-width="0.25"/>
<rect x="1.125" y="7.125" width="20.75" height="21.75" rx="0.875" fill="#AEC6CF" stroke="black" stroke-width="0.25"/>
<path d="M17.84 12.02C17.84 12.1133 17.8 12.1933 17.72 12.26C17.6533 12.3133 17.5867 12.34 17.52 12.34C17.4 12.34 17.2067 12.3533 16.94 12.38C16.6867 12.4067 16.4067 12.44 16.1 12.48C15.8067 12.5067 15.5133 12.54 15.22 12.58C14.94 12.6067 14.7133 12.6333 14.54 12.66C14.4867 12.66 14.3733 12.6667 14.2 12.68C14.04 12.6933 13.8533 12.7133 13.64 12.74C13.44 12.7533 13.2333 12.7733 13.02 12.8C12.82 12.8267 12.66 12.8467 12.54 12.86C12.3933 12.8867 12.18 12.9333 11.9 13C11.62 13.0667 11.3667 13.1333 11.14 13.2C11.06 13.2267 10.9867 13.2467 10.92 13.26C10.8533 13.2733 10.8 13.2867 10.76 13.3C10.7067 13.3133 10.66 13.3267 10.62 13.34L11.7 17.16C11.74 17.28 11.8067 17.4733 11.9 17.74C11.9933 18.0067 12.1 18.3 12.22 18.62C12.3533 18.94 12.4867 19.2733 12.62 19.62C12.7667 19.9667 12.8933 20.2867 13 20.58C13.0667 20.7533 13.14 20.9667 13.22 21.22C13.3 21.4733 13.3733 21.7333 13.44 22C13.5067 22.2533 13.56 22.4867 13.6 22.7C13.6533 22.9133 13.68 23.06 13.68 23.14C13.68 23.3267 13.6267 23.52 13.52 23.72C13.4133 23.9333 13.2733 24.04 13.1 24.04C12.94 24.04 12.86 23.9267 12.86 23.7V23.56C12.86 23.52 12.86 23.4733 12.86 23.42C12.8733 23.3667 12.88 23.3067 12.88 23.24C12.88 23.1333 12.84 22.9533 12.76 22.7C12.68 22.4333 12.58 22.14 12.46 21.82C12.34 21.4867 12.2067 21.14 12.06 20.78C11.9267 20.4067 11.7933 20.06 11.66 19.74C11.54 19.4067 11.4333 19.1267 11.34 18.9C11.2467 18.66 11.1867 18.5 11.16 18.42C11.12 18.3133 11.0667 18.16 11 17.96C10.9467 17.76 10.88 17.5333 10.8 17.28C10.72 17.0267 10.6333 16.76 10.54 16.48C10.46 16.1867 10.38 15.9 10.3 15.62C10.1 14.9667 9.88 14.2533 9.64 13.48C9.57333 13.4933 9.35333 13.5267 8.98 13.58C8.62 13.62 8.21333 13.6667 7.76 13.72C7.30667 13.7733 6.87333 13.8267 6.46 13.88C6.04667 13.92 5.76667 13.94 5.62 13.94C5.28667 13.94 5.07333 13.8867 4.98 13.78C4.88667 13.6733 4.83333 13.54 4.82 13.38C4.82 13.2733 4.84667 13.1667 4.9 13.06C4.95333 12.94 5.02667 12.88 5.12 12.88C5.22667 12.88 5.31333 12.9 5.38 12.94C5.43333 12.9667 5.50667 12.98 5.6 12.98C5.62667 12.98 5.76 12.9667 6 12.94C6.25333 12.9133 6.54667 12.88 6.88 12.84C7.22667 12.8 7.58 12.76 7.94 12.72C8.31333 12.68 8.64 12.6467 8.92 12.62C8.98667 12.62 9.05333 12.62 9.12 12.62C9.2 12.6067 9.27333 12.5933 9.34 12.58C9.40667 12.5667 9.47333 12.56 9.54 12.56C9.54 12.52 9.56 12.4333 9.6 12.3C9.65333 12.1533 9.70667 12.08 9.76 12.08C9.89333 12.08 10 12.1333 10.08 12.24C10.1733 12.3333 10.2533 12.4 10.32 12.44C10.4133 12.4267 10.5533 12.4 10.74 12.36C10.94 12.3067 11.1467 12.26 11.36 12.22C11.5867 12.18 11.8 12.1467 12 12.12C12.2133 12.08 12.3933 12.0533 12.54 12.04L14.88 11.9C15.08 11.8867 15.3067 11.8733 15.56 11.86C15.8267 11.8333 16.0867 11.8067 16.34 11.78C16.5933 11.7533 16.8133 11.7333 17 11.72C17.1867 11.6933 17.3133 11.68 17.38 11.68C17.5 11.6933 17.6067 11.7333 17.7 11.8C17.7933 11.8667 17.84 11.94 17.84 12.02Z" fill="black"/>
</svg>
