<svg width="16" height="16" viewBox="0 0 16 16" fill="none" xmlns="http://www.w3.org/2000/svg">
<rect x="6.125" y="2.125" width="8.75" height="9.75" rx="0.875" fill="#FFB347" stroke="black" stroke-width="0.25"/>
<rect x="4.125" y="3.125" width="8.75" height="9.75" rx="0.875" fill="#77DD77" stroke="black" stroke-width="0.25"/>
<rect x="2.125" y="4.125" width="8.75" height="9.75" rx="0.875" fill="#AEC6CF" stroke="black" stroke-width="0.25"/>
<path d="M9.92 6.51C9.92 6.55667 9.9 6.59667 9.86 6.63C9.82667 6.65667 9.79333 6.67 9.76 6.67C9.7 6.67 9.60333 6.67667 9.47 6.69C9.34333 6.70333 9.20333 6.72 9.05 6.74C8.90333 6.75333 8.75667 6.77 8.61 6.79C8.47 6.80333 8.35667 6.81667 8.27 6.83C8.24333 6.83 8.18667 6.83333 8.1 6.84C8.02 6.84667 7.92667 6.85667 7.82 6.87C7.72 6.87667 7.61667 6.88667 7.51 6.9C7.41 6.91333 7.33 6.92333 7.27 6.93C7.19667 6.94333 7.09 6.96667 6.95 7C6.81 7.03333 6.68333 7.06667 6.57 7.1C6.53 7.11333 6.49333 7.12333 6.46 7.13C6.42667 7.13667 6.4 7.14333 6.38 7.15C6.35333 7.15667 6.33 7.16333 6.31 7.17L6.85 9.08C6.87 9.14 6.90333 9.23667 6.95 9.37C6.99667 9.50333 7.05 9.65 7.11 9.81C7.17667 9.97 7.24333 10.1367 7.31 10.31C7.38333 10.4833 7.44667 10.6433 7.5 10.79C7.53333 10.8767 7.57 10.9833 7.61 11.11C7.65 11.2367 7.68667 11.3667 7.72 11.5C7.75333 11.6267 7.78 11.7433 7.8 11.85C7.82667 11.9567 7.84 12.03 7.84 12.07C7.84 12.1633 7.81333 12.26 7.76 12.36C7.70667 12.4667 7.63667 12.52 7.55 12.52C7.47 12.52 7.43 12.4633 7.43 12.35V12.28C7.43 12.26 7.43 12.2367 7.43 12.21C7.43667 12.1833 7.44 12.1533 7.44 12.12C7.44 12.0667 7.42 11.9767 7.38 11.85C7.34 11.7167 7.29 11.57 7.23 11.41C7.17 11.2433 7.10333 11.07 7.03 10.89C6.96333 10.7033 6.89667 10.53 6.83 10.37C6.77 10.2033 6.71667 10.0633 6.67 9.95C6.62333 9.83 6.59333 9.75 6.58 9.71C6.56 9.65667 6.53333 9.58 6.5 9.48C6.47333 9.38 6.44 9.26667 6.4 9.14C6.36 9.01333 6.31667 8.88 6.27 8.74C6.23 8.59333 6.19 8.45 6.15 8.31C6.05 7.98333 5.94 7.62667 5.82 7.24C5.78667 7.24667 5.67667 7.26333 5.49 7.29C5.31 7.31 5.10667 7.33333 4.88 7.36C4.65333 7.38667 4.43667 7.41333 4.23 7.44C4.02333 7.46 3.88333 7.47 3.81 7.47C3.64333 7.47 3.53667 7.44333 3.49 7.39C3.44333 7.33667 3.41667 7.27 3.41 7.19C3.41 7.13667 3.42333 7.08333 3.45 7.03C3.47667 6.97 3.51333 6.94 3.56 6.94C3.61333 6.94 3.65667 6.95 3.69 6.97C3.71667 6.98333 3.75333 6.99 3.8 6.99C3.81333 6.99 3.88 6.98333 4 6.97C4.12667 6.95667 4.27333 6.94 4.44 6.92C4.61333 6.9 4.79 6.88 4.97 6.86C5.15667 6.84 5.32 6.82333 5.46 6.81C5.49333 6.81 5.52667 6.81 5.56 6.81C5.6 6.80333 5.63667 6.79667 5.67 6.79C5.70333 6.78333 5.73667 6.78 5.77 6.78C5.77 6.76 5.78 6.71667 5.8 6.65C5.82667 6.57667 5.85333 6.54 5.88 6.54C5.94667 6.54 6 6.56667 6.04 6.62C6.08667 6.66667 6.12667 6.7 6.16 6.72C6.20667 6.71333 6.27667 6.7 6.37 6.68C6.47 6.65333 6.57333 6.63 6.68 6.61C6.79333 6.59 6.9 6.57333 7 6.56C7.10667 6.54 7.19667 6.52667 7.27 6.52L8.44 6.45C8.54 6.44333 8.65333 6.43667 8.78 6.43C8.91333 6.41667 9.04333 6.40333 9.17 6.39C9.29667 6.37667 9.40667 6.36667 9.5 6.36C9.59333 6.34667 9.65667 6.34 9.69 6.34C9.75 6.34667 9.80333 6.36667 9.85 6.4C9.89667 6.43333 9.92 6.47 9.92 6.51Z" fill="black"/>
</svg>
